<?xml version="1.0" encoding="utf-8"?>
<!-- Generator: Adobe Illustrator 19.1.0, SVG Export Plug-In . SVG Version: 6.00 Build 0)  -->
<svg version="1.1" id="Layer_1" xmlns="http://www.w3.org/2000/svg" xmlns:xlink="http://www.w3.org/1999/xlink" x="0px" y="0px"
	 viewBox="0 0 666 816.9" style="enable-background:new 0 0 666 816.9;" xml:space="preserve">
<style type="text/css">
	.st0{fill:#111111;}
</style>
<path class="st0" d="M134,93.8v490.3c-5.6-0.8-11.2-1.2-17-1.2c-64.6,0-117,52.4-117,117s52.4,117,117,117
	c64.2,0,116.3-51.7,117-115.7l0,0v-271l332-58.5v136.5c-5.6-0.8-11.2-1.2-17-1.2c-64.6,0-117,52.4-117,117s52.4,117,117,117
	c64.2,0,116.4-51.8,117-115.9l0,0V0L134,93.8z M234,328.6V176.2l332-58.5v152.5L234,328.6z"/>
</svg>
