<?xml version="1.0" encoding="utf-8"?>
<!-- Generator: Adobe Illustrator 19.1.0, SVG Export Plug-In . SVG Version: 6.00 Build 0)  -->
<svg version="1.1" id="Layer_1" xmlns="http://www.w3.org/2000/svg" xmlns:xlink="http://www.w3.org/1999/xlink" x="0px" y="0px"
	 viewBox="0 0 397.3 348.4" style="enable-background:new 0 0 397.3 348.4;" xml:space="preserve">
<style type="text/css">
	.st0{fill:#3D2F54;}
	.st1{fill:#281F37;}
	.st2{fill:#F5B7EC;}
	.st3{fill:url(#SVGID_1_);}
	.st4{fill:#F6C7EF;}
	.st5{fill:url(#SVGID_2_);}
	.st6{fill:none;stroke:#256ACB;stroke-width:0.5921;stroke-miterlimit:10;}
	.st7{fill:#F268DD;}
	.st8{fill:url(#SVGID_3_);}
	.st9{fill:url(#SVGID_4_);}
	.st10{fill:#F387E3;}
	.st11{fill:none;stroke:#FF55AE;stroke-width:0.148;stroke-miterlimit:10;}
	.st12{fill:none;stroke:url(#SVGID_5_);stroke-miterlimit:10;}
	.st13{fill:none;stroke:#3D2F54;stroke-width:4;stroke-miterlimit:10;}
	.st14{fill:#A265C9;}
	.st15{fill:#F7F7F7;}
	.st16{fill:url(#SVGID_6_);}
</style>
<g>
	<path class="st0" d="M242,129.2c2.8-3.1,8.6-1.4,8.6-1.4s15-1.6,24.9-0.3c21.5,2.7,33.6,2.6,41,33c6.7,27.5,14.2,51.4,11.7,78.6
		c-0.4,4.3-1.1,8.6-3,12.4c-3.2,6.2-9.6,7.9-15.6,10c-11.2,3.9-23.3,4.4-35.2,4.4c-16.8,0-33.4-1.4-50.3-0.2
		c-16.6,1.2-33.8,3.9-50.4,1.7c-13.3-1.7-25.8-12.8-31.8-24.4c-8.2-15.9-5.5-34.3-0.4-50.7c7.6-24.3,5.7-54.2,42.7-60.3
		c5.1-0.8,14.8-4.2,19.5-0.7c2.7,2,5.6-7.3,6.7-4.3C213.4,134.8,238.9,132.6,242,129.2z"/>
</g>
<g>
	<g>
		<g>
			<path class="st1" d="M288.6,191.5L288.6,191.5L288.6,191.5z"/>
			<path class="st1" d="M286.8,191.8c0.9,5.8,2,13.7,2.7,20.2c0.7,6.5,1.2,11.5,1.5,11.5c0.1,0,0.1-1.6,0.1-4.1
				c-0.1-2.5-0.2-5.9-0.5-9.5c-0.5-7.2-1.5-15.1-2-18.3c-0.5-3.2-2-11.1-3.8-18.1c-0.9-3.5-1.8-6.8-2.6-9.1
				c-0.8-2.4-1.3-3.9-1.4-3.8c-0.2,0.1,1,5,2.4,11.3C284.5,178.1,285.9,186,286.8,191.8z"/>
		</g>
	</g>
</g>
<path class="st2" d="M209.5,110.3c0,0,0,8.1-0.8,23.3c0,0,10.1,6.9,18.1,4.7c7.9-2.3,15.8-10.7,15.8-10.7s6.3-24.9,8.8-30
	L209.5,110.3z"/>
<linearGradient id="SVGID_1_" gradientUnits="userSpaceOnUse" x1="207.547" y1="35.6169" x2="202.547" y2="179.2836">
	<stop  offset="0" style="stop-color:#F497E6"/>
	<stop  offset="1" style="stop-color:#F268DD"/>
</linearGradient>
<path class="st3" d="M221.7,29.4c0,0-5.3,11-5.7,13c-2.4,12.4-3.8,25.1-4.7,37.7c-1,13.3,2.1,26.9,4.4,40.1c0.4,2.1,0.1,4.2,0.1,6.4
	c0.1,2.3,1,4.2,1.5,6.4c0.6,2.5,0.5,5.1,0.7,7.6c0.6,6.2-1.7,12.1-2.1,18.1c-0.2,2.8,0.5,5.6,0.3,8.4c-0.4,4.4-0.7,8.9-0.6,13.4
	c0.2,4.2,1.1,8.7,2.5,12.8c0.7,2.1-0.6,4.3-2.8,4.6c-4.5,0.6-9.2,1-13.7,0.3c-1.4-0.2-2.8-0.6-3.8-1.6c-1.4-1.6-1.3-4-1.2-6
	c0.1-1.5,0.1-3,0.1-4.5c0.1-2.9,0-5.8,0.1-8.7c0-2.4,0.2-4.9-0.3-7.3c-0.6-2.5-1.8-4.9-1.8-7.6c0-3.1,0.8-6.1,0.8-9.2
	c0-4.8,0.8-9.4,0.7-14.2c-0.3-10.2-3.4-20.2-2.8-30.4c0.3-4.8-1.9-9.3-1.7-14c0.1-1.9,0.1-3.8-0.1-5.8c-0.7-10.3-2.8-25.7-0.4-37.7
	c0.6-3.1,0.6-5.2,2.5-8c4.7-6.8,12.2-14.2,21-14.7C217.1,28.4,219.4,28.6,221.7,29.4z"/>
<path class="st4" d="M223.4,40.6c-1.3-0.4-3.1,1-4.5,0.9c-3.4-0.3-6.5,0.1-9.1,1.3c-1.5,0.7-2.4,2.1-3.6,3.1c-1.2,1-2.5,2.1-3.4,3.4
	c-1,1.4-1.3,3-1.5,4.7c-0.2,1.6-0.6,3.2-1,4.7c-0.3,1.2-0.6,2.4-0.9,3.5c-0.4,1.6-1.3,3.1-1.5,4.7c-0.4,3.2-0.1,6.5-0.2,9.7
	c0,1.9-0.7,3.8-0.5,5.7c0.5,4.2,1.8,8,3.3,11.6c1.1,2.7,2.4,5.3,3.6,8c1.2,2.6,2.5,5.1,3.9,7.6c1.7,3.1,3.8,5.8,7,7.4
	c4,2,8.6,2.6,13,1.6c9.2-2.2,15.9-10.7,22.2-17.1c13.3-13.6,2.3-38.3-10.8-50.9C235,46.2,229.6,42.3,223.4,40.6z"/>
<linearGradient id="SVGID_2_" gradientUnits="userSpaceOnUse" x1="238.0882" y1="41.6353" x2="257.0882" y2="201.6353">
	<stop  offset="0" style="stop-color:#F497E6"/>
	<stop  offset="1" style="stop-color:#F268DD"/>
</linearGradient>
<path class="st5" d="M218.2,31.6c-0.1,0.1-0.1,0.2-0.2,0.3c-0.4,0.7-0.4,2-0.6,2.8c-0.2,1.1-0.5-0.5-0.7,0.6
	c-0.3,1.5-0.3,4.7-0.6,6.1c2.9,0.4,5,0.3,7.7,1.3c2.7,1,5.7,1.3,7.9,3.1c1.3,1,2.4,2.3,3.6,3.4c1,1,2.2,1.9,3.2,2.8
	c2.1,2,3.5,4.3,4.9,6.8c1.3,2.3,3.1,4.2,4.4,6.5c3.5,6.5,1,13.7,0.1,20.6c-0.4,3,0.8,6.1,0.3,9c-1.3,8.9-5.3,18-7.8,26.7
	c-2.3,7.9-4.6,15.9-4.4,24.1c0,2.7,0.4,5.3,0.1,8c-0.3,2.7-1.2,5.3-1.1,8c0,2.4,0.8,4.7,1.6,6.9c2.4,7.1,4.8,14.2,7.3,21.3
	c1.1,3.2,1.8,7.3,3.5,10.2c0.7,1.2,3.8,3.4,3.8,4.6c1.1,1.2,2.8,3.5,4.4,4c3.8,1.2,5.5,4.9,9.4,4.7c1.1,0.5,2.7,3.1,4.2,3.8
	c2.6,1.3,7.8,0.9,9.8,0.4c-0.5,0.1-4.2-21.7-4.3-23.6c-0.1-1.5-0.2-3-0.4-4.5c-0.3-1.9-0.9-3.7-1.5-5.5c-4.4-13.4-7.3-27.3-8.5-41.4
	c-0.7-7.4-0.9-14.9-0.7-22.3c0.2-6.4-0.4-13,0-19.3c0.2-2.7,1.8-5.1,1.8-7.9c-0.2-9.4-1.3-18.9-3.3-28.1c-1.4-6.4-2.5-12.6-4.9-18.7
	c-2.1-5.3-5.1-10.7-9.9-14.1c-3.5-2.5-7.7-3.5-11.9-3.9c-5-0.5-9.4-0.4-14.3,0.3C219.9,28.6,219.1,30.5,218.2,31.6z"/>
<path class="st4" d="M245.7,83.6c1.3,3.7-2.3,5.9-4.6,5.9c-2.3,0-4.6-3.6-4.6-5.9s2.6-4.2,5-4.2C243.8,79.4,245,81.4,245.7,83.6z"/>
<path class="st4" d="M230.6,113.5c0.8,2.2-2,3.5-3.6,3.8c-3.4,0.7-7.1,0.4-10.1-1.2c-0.1,0-0.1-0.1-0.2-0.1
	c-1.1-0.6-2.3-1.8-1.4-3.1c0.8-1.2,2.5-1.8,3.9-2.1c3-0.8,6-0.7,8.9,0.5C229,111.7,230.2,112.4,230.6,113.5z"/>
<path class="st4" d="M206.4,87.1c0,2-1.9,4.2-3.8,4.2s-3.3-1.6-3.3-3.7s0.4-4.8,3-4.8C204.2,82.9,206.4,84.1,206.4,87.1z"/>
<path class="st4" d="M217.9,88.5c0,0.4-0.1,0.9-0.4,1.2c-0.3,0.3-0.8,0.5-1.2,0.4c-0.4-0.1-0.8-0.3-1.2-0.6
	c-0.5-0.5-0.9-1.2-0.9-1.9c0-1.1,1.1-2.6,2.3-2.1c1,0.4,1.3,1.8,1.3,2.7C217.9,88.3,217.9,88.4,217.9,88.5z"/>
<g>
	<g>
		<g>
			<path class="st7" d="M225.2,89.3c0.5,0,1.1-0.1,1.6-0.4c0.6-0.3,1-0.8,1.3-1.3c0.5-1,0.4-1.9,0.2-1.9c-0.1,0-0.3,1-1,1.7
				c-0.7,0.8-1.8,0.9-2.3,0.9c-0.5,0.1-1.7,0-2.8,0.3c-0.6,0.1-1.1,0.4-1.4,0.6c-0.3,0.3-0.4,0.5-0.4,0.6c0.1,0,0.2-0.1,0.5-0.2
				c0.3-0.1,0.7-0.2,1.1-0.3C223.1,89.3,224.3,89.4,225.2,89.3z"/>
		</g>
	</g>
</g>
<g>
	<g>
		<g>
			<path class="st7" d="M216.1,78.3c0.1-0.6,0.1-1.4,0.1-2.2c0-0.8-0.2-1.6-0.6-2.3c-0.7-1.3-1.7-1.9-1.8-1.8
				c-0.1,0.1,0.9,1.1,1.3,2.5c0.2,0.7,0.2,1.4,0.1,2.1c-0.1,0.7-0.1,1.3-0.2,1.6c-0.1,0.7-0.2,2.4-0.4,3.9c-0.1,1.5-0.5,2.8-0.3,2.9
				c0.1,0.1,0.6-1,0.9-2.3C215.8,81.2,216,79.5,216.1,78.3z"/>
		</g>
	</g>
</g>
<g>
	<g>
		<g>
			<path class="st7" d="M215.8,90.5L215.8,90.5L215.8,90.5z"/>
			<path class="st7" d="M215.4,91.3c1.1,0.5,2.5,0.5,3.6,0.4c0.6-0.1,1.1-0.2,1.5-0.6c0.2-0.2,0.2-0.4,0.1-0.5
				c0-0.1-0.1-0.2-0.1-0.2c-0.1,0,0,0.3-0.4,0.5c-0.3,0.1-0.9,0.2-1.5,0.1c-1.2-0.1-2.5-0.4-2.9-0.6c-0.2-0.1-0.6-0.3-1-0.6
				c-0.4-0.3-0.7-0.8-0.8-1.4c-0.4-1.1,0.1-2.1,0-2.2c-0.1-0.1-0.7,0.7-0.7,2c0,0.6,0.2,1.3,0.6,1.9
				C214.3,90.7,214.9,91.1,215.4,91.3z"/>
		</g>
	</g>
</g>
<g>
	<g>
		<g>
			<path class="st7" d="M238.3,93.5L238.3,93.5L238.3,93.5z"/>
			<path class="st7" d="M239,92.7c-0.7-0.6-1.7-1-2.6-1.2c-0.8-0.2-1.5-0.4-1.6-0.3c-0.1,0.1,0.7,0.6,1.5,1.1c0.9,0.4,1.7,1,1.9,1.2
				c0.3,0.2,1,0.9,1.4,1.7c0.4,0.8,0.2,1.6,0.4,1.7c0.1,0.1,0.5-0.6,0.4-1.6C240.4,94.2,239.7,93.2,239,92.7z"/>
		</g>
	</g>
</g>
<linearGradient id="SVGID_3_" gradientUnits="userSpaceOnUse" x1="222.7715" y1="63.8701" x2="245.888" y2="63.8701">
	<stop  offset="0" style="stop-color:#F497E6"/>
	<stop  offset="1" style="stop-color:#F268DD"/>
</linearGradient>
<path class="st8" d="M223.5,66.9c-0.5-0.3-0.7-1-0.7-1.6c0-1.3,1.3-1.5,2.3-1.7c0.7-0.2,1.4-0.4,2-0.6c1.3-0.4,2.7-0.9,4-1.3
	c1.7-0.5,3.5-0.9,5.3-1c3.5-0.1,7,1.3,9.5,3.8c-0.3,0.1-0.5,0-0.8-0.1c-2.6-0.9-5.3-1.6-8.1-1.4c-2.7,0.2-5.2,1.2-7.7,2.3
	c-1,0.4-1.9,0.8-2.9,1.2c-0.6,0.2-1.3,0.4-1.9,0.6C224.1,67.1,223.8,67.1,223.5,66.9z"/>
<linearGradient id="SVGID_4_" gradientUnits="userSpaceOnUse" x1="199.2397" y1="66.6606" x2="212.7164" y2="66.6606">
	<stop  offset="0" style="stop-color:#F497E6"/>
	<stop  offset="1" style="stop-color:#F268DD"/>
</linearGradient>
<path class="st9" d="M199.2,68.7c0.2-1.2,1.6-1.8,2.7-1.8c1.4,0,2.8,0.5,4.1,0.8c1,0.2,1.9,0.4,2.9,0.5c0.9,0.2,1.8,0.5,2.8,0.6
	c0.3,0,0.7,0,0.9-0.3c0.1-0.1,0.1-0.3,0.1-0.5c-0.1-0.6-0.5-1.3-1-1.8c-0.6-0.6-1.5-1-2.3-1.1c-0.7-0.1-1.3-0.2-2-0.3
	c-1.2-0.2-2.4-0.5-3.6-0.4c-1.1,0.1-2.3,0.4-3.2,1C199.6,66.3,199.5,67.5,199.2,68.7z"/>
<path class="st10" d="M212.3,98.9c0,0,2.5-3.1,6.6-1.4c0.3,0.1,0.7-0.2,0.9-0.3c1.3-0.6,2.7-0.1,4,0.4c2,0.7,4.1,0.9,6.2,0.9
	c1.4,0,2.9,0.1,4.2-0.3c-1.4,0.4-2.8,0.8-4.2,1c-4,0.7-8.1,0.5-12.2,0.4C216.1,99.7,214,99.8,212.3,98.9z"/>
<path class="st10" d="M212.5,99c0,0,0.1,0.2,0.1,0.3c0,0.1,0.1,0.2,0.1,0.3c0.1,0.2,0.2,0.4,0.3,0.5c0.1,0.2,0.2,0.4,0.4,0.7
	c0.1,0.2,0.3,0.4,0.4,0.6c0.5,0.6,1,1,1.7,1.4c0.6,0.4,1.3,0.6,2.1,0.8c0.7,0.2,1.5,0.3,2.2,0.3c0.3,0,0.6,0,0.9,0
	c2.3-0.1,4.5-0.5,6.6-1.2c1.8-0.6,3.6-1.3,5-2.6c0.3-0.3,0.6-0.5,0.8-0.9c0.2-0.2,0.4-0.6,0.8-0.6C234,98.5,221.6,100.7,212.5,99z"
	/>
<g>
	<g>
		<g>
			<path class="st7" d="M223.9,99c-2.7,0.1-6.4,0.4-9.3,0c-1.5-0.2-2.7-0.6-3.5-1c-0.8-0.4-1.1-0.9-1.2-0.9c0,0,0,0.2,0.2,0.5
				c0.2,0.3,0.6,0.6,1.1,0.9c1,0.6,2.6,1.1,4.2,1.3c1.7,0.2,3.4,0.3,5,0.2c1.5,0,2.8,0,3.5-0.1c0.7,0,2-0.1,3.6-0.2
				c1.5-0.1,3.3-0.2,4.9-0.7c1.6-0.4,3.1-1.1,4.1-1.7c1-0.6,1.5-1.2,1.5-1.2c0-0.1-0.5,0.3-1.4,0.7c-0.8,0.4-2.1,0.9-3.5,1.3
				c-1.4,0.4-3,0.6-4.6,0.6C226.8,98.9,225.2,99,223.9,99z"/>
		</g>
	</g>
</g>
<g>
	<g>
		<g>
			<path class="st7" d="M222.8,107.5c-1.6,0-3.8,0.4-5.4,1.2c-1.6,0.7-2.7,1.6-2.6,1.7c0.1,0.1,1.5-0.7,3.3-1.2
				c1.8-0.5,3.8-0.7,4.6-0.6c0.8,0,2.9,0,4.6,0.6c1.8,0.5,3.2,1.4,3.3,1.2c0-0.1-0.2-0.3-0.7-0.6c-0.2-0.2-0.5-0.4-0.8-0.6
				c-0.3-0.2-0.7-0.4-1.1-0.6C226.7,107.9,224.5,107.4,222.8,107.5z"/>
		</g>
	</g>
</g>
<g>
	<polygon class="st7" points="167.9,45.7 157.7,50.2 157.5,49 167.6,44.5 	"/>
	<polygon class="st7" points="168.4,48.1 158.3,52.6 158.1,51.4 168.1,46.9 	"/>
	
		<rect x="153.5" y="54" transform="matrix(0.2228 0.9749 -0.9749 0.2228 177.0876 -112.9395)" class="st7" width="11.8" height="1.3"/>
	
		<rect x="162.1" y="51.2" transform="matrix(0.2228 0.9749 -0.9749 0.2228 181.6053 -124.134)" class="st7" width="13.1" height="1.3"/>
	<circle class="st7" cx="158.9" cy="60.7" r="2.4"/>
	<circle class="st7" cx="168.4" cy="58.7" r="2.4"/>
</g>
<g>
	<polygon class="st7" points="169.7,86.3 160.4,87.2 160.5,86.1 169.8,85.2 	"/>
	<polygon class="st7" points="169.5,88.3 160.3,89.2 160.4,88.2 169.6,87.3 	"/>
	
		<rect x="155.6" y="90.6" transform="matrix(-9.768298e-002 0.9952 -0.9952 -9.768298e-002 266.9018 -59.8156)" class="st7" width="9.9" height="1.1"/>
	
		<rect x="163.2" y="90.8" transform="matrix(-9.768296e-002 0.9952 -0.9952 -9.768296e-002 276.1077 -67.6227)" class="st7" width="11" height="1.1"/>
	<circle class="st7" cx="158.6" cy="95.9" r="2.1"/>
	<circle class="st7" cx="166.6" cy="96.8" r="2.1"/>
</g>
<g>
	<polygon class="st7" points="189,10 179.7,12.6 179.6,11.5 188.9,8.9 	"/>
	<polygon class="st7" points="189.1,12.1 179.9,14.7 179.9,13.6 189.1,11 	"/>
	
		<rect x="175.5" y="16" transform="matrix(8.061565e-002 0.9967 -0.9967 8.061565e-002 182.5355 -164.7869)" class="st7" width="10.3" height="1.1"/>
	
		<rect x="183.2" y="14.8" transform="matrix(8.061567e-002 0.9967 -0.9967 8.061567e-002 188.9667 -174.195)" class="st7" width="11.3" height="1.1"/>
	<circle class="st7" cx="179.4" cy="21.8" r="2.1"/>
	<circle class="st7" cx="187.8" cy="21.2" r="2.1"/>
</g>
<g>
	<polygon class="st7" points="289.7,32.3 279.7,33.3 279.8,32.2 289.8,31.2 	"/>
	<polygon class="st7" points="289.4,34.6 279.5,35.5 279.6,34.4 289.5,33.4 	"/>
	
		<rect x="274.5" y="37" transform="matrix(-9.403040e-002 0.9956 -0.9956 -9.403040e-002 343.5409 -237.5603)" class="st7" width="10.7" height="1.1"/>
	
		<rect x="282.7" y="37.2" transform="matrix(-9.403039e-002 0.9956 -0.9956 -9.403039e-002 353.3555 -245.9769)" class="st7" width="11.8" height="1.1"/>
	<circle class="st7" cx="277.7" cy="42.7" r="2.2"/>
	<circle class="st7" cx="286.4" cy="43.6" r="2.2"/>
</g>
<g>
	<polygon class="st7" points="243.3,1 235.4,4.8 235.2,3.8 243.1,0 	"/>
	<polygon class="st7" points="243.8,2.9 236,6.6 235.7,5.7 243.5,1.9 	"/>
	
		<rect x="232.2" y="7.7" transform="matrix(0.2522 0.9677 -0.9677 0.2522 184.9908 -223.0635)" class="st7" width="9.3" height="1"/>
	
		<rect x="238.9" y="5.3" transform="matrix(0.2522 0.9677 -0.9677 0.2522 188.0773 -231.8591)" class="st7" width="10.3" height="1"/>
	<circle class="st7" cx="236.6" cy="13" r="1.9"/>
	<circle class="st7" cx="244" cy="11.2" r="1.9"/>
</g>
<g>
	<polygon class="st7" points="292.4,87 281.6,89.8 281.5,88.5 292.4,85.7 	"/>
	<polygon class="st7" points="292.5,89.5 281.8,92.3 281.7,91 292.5,88.2 	"/>
	
		<rect x="276.5" y="93.8" transform="matrix(6.215752e-002 0.9981 -0.9981 6.215752e-002 359.1709 -193.3617)" class="st7" width="12" height="1.3"/>
	
		<rect x="285.6" y="92.6" transform="matrix(6.215754e-002 0.9981 -0.9981 6.215754e-002 367.0399 -204.2316)" class="st7" width="13.2" height="1.3"/>
	<circle class="st7" cx="281" cy="100.5" r="2.5"/>
	<circle class="st7" cx="290.8" cy="100" r="2.5"/>
</g>
<g>
	<g>
		<g>
			<g>
				<path class="st7" d="M233.6,73.4c1.3-0.1,3-0.5,4.3-1c1.3-0.5,2.3-1,2.2-1.1c-0.1-0.1-1.4,0.2-2.8,0.5c-1.5,0.3-3.1,0.5-3.8,0.5
					c-0.5,0-1.7,0.1-2.9,0.1c-1.2,0-2.4,0-3.2,0l0,0.3c0.2,0,0.1-0.1,0.2-0.1l0-0.1l0.1-0.1c0-0.1,0.1-0.1,0.1-0.2
					c0-0.1,0.1-0.2,0-0.2c0,0-0.1,0-0.2,0.1c0,0-0.1,0.1-0.2,0.1l-0.1,0.1l0,0l0,0c0,0,0.1,0.1,0.1,0.2l0,0.2
					C228.6,73.2,231.6,73.6,233.6,73.4z"/>
			</g>
		</g>
	</g>
</g>
<g>
	<g>
		<g>
			<g>
				<path class="st7" d="M206.9,75.5c1,0,2.3-0.3,3.3-0.6c1-0.4,1.7-0.8,1.6-1c-0.1-0.1-1,0.1-2.1,0.3c-1.1,0.2-2.3,0.2-2.8,0.2
					c-0.5,0-1.7-0.1-2.8-0.3c-1.1-0.2-2.1-0.4-2.2-0.3c-0.1,0.1,0.7,0.6,1.7,0.9C204.6,75.2,205.9,75.5,206.9,75.5z"/>
			</g>
		</g>
	</g>
</g>
<path class="st13" d="M263.3,66.8c0,0,3.8-48.1-39.6-47.6s-36.3,47.8-36.3,47.8"/>
<path class="st0" d="M191.2,60.7l2.6,26.5c0.4,4.3-4.5,7.2-8,4.6c-3.2-2.4-6.2-7.1-7.4-16.2c-1.2-9.9,1.3-15.2,4.3-18.1
	C185.8,54.6,190.8,56.5,191.2,60.7z"/>
<path class="st0" d="M259.6,85.8L258,59.2c-0.3-4.3,4.8-7,8.1-4.3c3.1,2.5,6,7.3,6.8,16.5c0.9,9.9-1.8,15.2-5,17.9
	C264.7,92,259.8,89.9,259.6,85.8z"/>
<path class="st14" d="M210.5,224.2l-17-1.8c-2.2-0.2-4-2.2-4-4.4l0-39.6c0-2.2,1.8-3.8,4-3.6l17,1.8c2.2,0.2,4,2.2,4,4.4l0,39.6
	C214.5,222.8,212.7,224.5,210.5,224.2z"/>
<path class="st4" d="M258.1,211.7c0,0-6.8-3.9-10.5-7.5c-2.7-2.7-6.4-4.5-9.8-6.2c-1.6-0.8-3.2-1.5-4.8-2.2c-2.9-1.1-6.1-1.5-9.2-2
	c-3.4-0.6-6.8-1-10.2-1.6c-2.3-0.4-4.5-1-6.7-1.3c-1.4-0.2-3.8-0.6-4.9,0.5c-0.1,0.1-0.2,0.3-0.3,0.4c-1.4,3.4,11,5.5,13,6
	c2.6,0.7,5.2,1.5,7.7,2.4c1.4,0.5,2.8,0.9,4.1,1.5c1,0.4,2.3,1.3,3.3,1.5c-7.3-1.2-14.5-2.5-21.7-4.1c-2.3-0.5-4.5-0.9-6.8-1.2
	c-1.4-0.2-3.1-0.6-4.5-0.4c-0.9,0.1-3.1,1.8,1,3.6c2.7,1.2,5.6,1.6,8.4,2.4c3.6,1,7,2.1,10.2,3.9c1.4,0.8,2.8,1.5,4.2,2.3
	c0.8,0.4,1.8,1.1,2.7,1.2c-3.6-0.7-7.2-1.2-10.8-1.9c-3.6-0.7-7.1-1.8-10.6-2.7c-1.5-0.4-3.3-1.1-4.9-1c-2.1,0.1-2.9,1.6-1.8,2.8
	c0.7,0.7,1.8,1.2,2.7,1.6c1.6,0.8,3.2,1.6,4.8,2.3c4.9,2.2,10.2,3.4,15.1,5.8c1.5,0.7,2.9,1.4,4.4,2.1c0.7,0.3,1.8,1,2.6,0.9
	c0,0-18.3-3.5-20.4-4.9c-0.5-0.3-1.8-0.3-2.3-0.1c-1.1,0.4-1.1,1.6-0.4,2.4c0.9,1.1,2.9,1.4,4.1,2c4.9,2,10,4,14.4,7
	c0.9,0.6,11.6,5.1,14,5.3c2.4,0.2,12.2,1.5,15.8,4.5c0,0,8.2-3.7,10.5-11C262,222.1,259.2,216.1,258.1,211.7z"/>
<path class="st4" d="M140.7,213.6c0,0,6.8-3.9,10.5-7.5c2.7-2.7,6.4-4.5,9.8-6.2c1.6-0.8,3.2-1.5,4.8-2.2c2.9-1.1,6.1-1.5,9.2-2
	c3.4-0.6,6.8-1,10.2-1.6c2.3-0.4,4.5-1,6.7-1.3c1.4-0.2,3.8-0.6,4.9,0.5c0.1,0.1,0.2,0.3,0.3,0.4c1.4,3.4-11,5.5-13,6
	c-2.6,0.7-5.2,1.5-7.7,2.4c-1.4,0.5-2.8,0.9-4.1,1.5c-1,0.4-2.3,1.3-3.3,1.5c7.3-1.2,14.5-2.5,21.7-4.1c2.3-0.5,4.5-0.9,6.8-1.2
	c1.4-0.2,3.1-0.6,4.5-0.4c0.9,0.1,3.1,1.8-1,3.6c-2.7,1.2-5.6,1.6-8.4,2.4c-3.6,1-7,2.1-10.2,3.9c-1.4,0.8-2.8,1.5-4.2,2.3
	c-0.8,0.4-1.8,1.1-2.7,1.2c3.6-0.7,7.2-1.2,10.8-1.9c3.6-0.7,7.1-1.8,10.6-2.7c1.5-0.4,3.3-1.1,4.9-1c2.1,0.1,2.9,1.6,1.8,2.8
	c-0.7,0.7-1.8,1.2-2.7,1.6c-1.6,0.8-3.2,1.6-4.8,2.3c-4.9,2.2-10.2,3.4-15.1,5.8c-1.5,0.7-2.9,1.4-4.4,2.1c-0.7,0.3-1.8,1-2.6,0.9
	c0,0,18.3-3.5,20.4-4.9c0.5-0.3,1.8-0.3,2.3-0.1c1.1,0.4,1.1,1.6,0.4,2.4c-0.9,1.1-2.9,1.4-4.1,2c-4.9,2-10,4-14.4,7
	c-0.9,0.6-11.6,5.1-14,5.3c-2.4,0.2-12.2,1.5-15.8,4.5C148.4,238.8,137.4,226.4,140.7,213.6z"/>
<g>
	<path class="st0" d="M308.7,262.5c-0.9-0.9-8.9-5.7-10-6.1c-2.3-0.9-4.6,4-7,3.2c-3.2-1-6.3-2.5-9.4-3.7c-2.9-1.1-6-1.4-9-2.4
		c-3.5-1.2-6-4.4-9.5-5.7c-3.8-1.4-2.7-5.4-2.7-5.4c-1.7-0.7-11.5-4.9-11.5-4.9c20.6-10.3,7.5-26.9,7.5-26.9
		c0.4-0.1,9.4,4.1,12.7,6.8c4.9,0.5,10,0.8,14.6,2.9c4.1,1.8,8,4.6,12.6,4.7c3.4,0.1,6.6-1.3,9.8-2.2c3.2-0.9,7-1.2,9.7,0.7"/>
	<g>
		<g>
			<path class="st1" d="M260.3,229.3L260.3,229.3L260.3,229.3z"/>
			<path class="st1" d="M258.7,228.5c-0.9,1.6-2.1,3-3.6,4.3c-0.4,0.3-0.8,0.6-1.2,0.9c-0.4,0.3-0.8,0.6-1.2,0.9
				c-0.4,0.3-0.9,0.5-1.3,0.8l-0.3,0.2l-0.6,0.3l-1.3,0.7l-1.3,0.7c0,0-0.1,0.1-0.1,0.1l0.2,0.1l0.4,0.2l0.7,0.3
				c0.8,0.4,1.7,0.7,2.6,1.1c1,0.4,2.1,0.9,3.1,1.3c1.9,0.8,3.8,1.6,5.7,2.4l0,0.1c0,0.2,0,0.5,0,0.7c0,0.5,0.1,1,0.2,1.5
				c0.2,1,0.8,1.9,1.7,2.6c0.4,0.3,0.9,0.6,1.3,0.7c0.4,0.2,0.8,0.3,1.1,0.5c0.7,0.3,1.4,0.8,2.1,1.3c1.4,0.9,2.7,2,4.3,2.9
				c0.8,0.4,1.6,0.8,2.4,1.1c0.8,0.3,1.7,0.5,2.5,0.7c1.6,0.4,3.2,0.7,4.7,1.1c1.5,0.4,2.9,1,4.3,1.6c1.4,0.6,2.8,1.2,4.2,1.7
				c0.7,0.3,1.4,0.5,2,0.7c0.2,0.1,0.3,0.1,0.5,0.2c0.2,0,0.4,0.1,0.7,0.1c0.2,0,0.4,0,0.6-0.1c0.2-0.1,0.4-0.1,0.5-0.2
				c1.3-0.7,2.2-1.8,3.1-2.4c0.5-0.3,0.9-0.6,1.4-0.7c0.2,0,0.4,0,0.7,0.1c0.2,0.1,0.5,0.2,0.7,0.3c1.9,1,3.6,2,5,2.8
				c1.4,0.8,2.4,1.4,3.2,1.9c0.7,0.4,1.1,0.7,1.1,0.7c0.1-0.1-1.5-1.4-4.3-3.2c-1.4-0.9-3.1-2-5.2-3.1c-0.3-0.1-0.6-0.3-1-0.3
				c-0.4,0-0.7,0.1-1,0.2c-0.6,0.3-1.2,0.7-1.7,1.1c-0.5,0.4-1,0.8-1.5,1.2c-0.5,0.4-1.1,0.7-1.6,0.8c-0.4,0.1-1.2-0.3-1.8-0.5
				c-0.7-0.2-1.3-0.5-2-0.8c-1.4-0.6-2.7-1.2-4.2-1.8c-1.4-0.6-2.9-1.2-4.5-1.6c-1.6-0.4-3.2-0.7-4.7-1.2c-0.8-0.2-1.5-0.5-2.2-0.8
				c-0.7-0.3-1.4-0.7-2-1.1c-1.3-0.9-2.6-1.9-4-2.9c-0.7-0.5-1.5-0.9-2.2-1.2L264,247l-0.5-0.2c-0.3-0.2-0.6-0.4-0.8-0.6
				c-0.5-0.4-0.7-1-0.9-1.7c-0.1-0.3-0.1-0.7-0.1-1c0-0.2,0-0.3,0-0.6c0-0.4,0.1-0.7,0.2-1.1c-2.7-1.2-5.4-2.3-7.9-3.4
				c-0.6-0.3-1.2-0.5-1.7-0.7c-0.3-0.1-0.5-0.2-0.8-0.3l0,0l0,0l0.1-0.1l0.1-0.1c0,0,0,0,0.1,0l0.4-0.2c4-2.3,6.7-5.2,8-7.6
				c0.5-0.9,1-2.1,1.4-3.4c0.4-1.4,0.5-2.9,0.4-4.6c-0.1-1.7-0.5-3.5-1.1-5.3c-0.3-0.9-0.7-1.8-1.2-2.7c-0.1-0.2-0.2-0.4-0.3-0.7
				l-0.1-0.2l0,0l-0.1-0.1c-0.1-0.1,0,0,0.1,0c0.1,0,0,0,0.2,0.1c0.4,0.2,0.8,0.4,1.1,0.5c1.5,0.7,3,1.5,4.6,2.3
				c0.8,0.4,1.5,0.9,2.2,1.3c0.4,0.2,0.7,0.5,1.1,0.7c0.2,0.1,0.4,0.2,0.5,0.4l0.3,0.3c0.1,0.2,0.4,0.2,0.6,0.2
				c1.9,0.2,3.6,0.3,5.4,0.5c3.5,0.4,7,1.2,10,2.8c3.1,1.5,6.2,3.2,9.4,3.8c1.6,0.3,3.3,0.3,4.8,0c1.5-0.3,2.9-0.7,4.2-1.1
				c2.6-0.9,4.8-1.6,6.8-1.8c2-0.2,3.5,0.1,4.5,0.5c1,0.4,1.5,0.7,1.5,0.7c0,0-0.4-0.4-1.3-0.9c-0.9-0.5-2.4-0.9-4.3-0.8
				c-1.9,0-4.1,0.5-6.6,1.3c-2.4,0.7-5.2,1.6-8.1,1.4c-3-0.3-5.9-1.8-8.9-3.4c-1.5-0.8-3.1-1.6-4.9-2.2c-1.7-0.6-3.6-1-5.4-1.3
				c-1.8-0.3-3.7-0.5-5.6-0.7l-1.3-0.1c0,0,0,0,0,0l-0.2-0.2c-0.2-0.2-0.4-0.3-0.6-0.4c-0.8-0.6-1.6-1-2.4-1.5c-1.6-1-3.3-1.9-5-2.7
				l-1.3-0.6l-0.8-0.4l-1.2-0.5c-0.4-0.2-0.7-0.3-1.1-0.4c-0.4-0.1-0.6-0.1-0.9-0.2l-0.7-0.1l-0.7-0.1l1,1.3
				c0.3,0.4,0.6,0.8,0.8,1.2l0.7,1.1l0.4,0.7c0.4,0.7,0.7,1.4,1,2.2c0.6,1.5,1,3,1.1,4.5C260.6,223.3,260,226.1,258.7,228.5z"/>
		</g>
	</g>
</g>
<ellipse class="st15" cx="198.7" cy="298.6" rx="198.7" ry="49.8"/>
<path class="st10" d="M203,266.5l55,3.2c3,0.7,3.8,4.5,1.5,6.5l-39,32c-2.1,1.7-5.3,0.7-6-2l-31.6-32.6
	C182.2,270.9,200.3,265.8,203,266.5z"/>
<linearGradient id="SVGID_5_" gradientUnits="userSpaceOnUse" x1="142.2856" y1="296.0415" x2="133.2856" y2="202.0415">
	<stop  offset="0" style="stop-color:#F497E6"/>
	<stop  offset="1" style="stop-color:#F268DD"/>
</linearGradient>
<path style="fill:url(#SVGID_5_);" d="M217.8,309L75.1,294.9c-1.6-0.2-3-1.4-3.3-3l-17.9-96.3c-0.4-2.3,1.4-4.5,3.8-4.4l148.5,4.1
	c1.9,0.1,3.4,1.5,3.6,3.3l12.1,106.3C222.2,307.3,220.2,309.3,217.8,309z"/>
</svg>
