<?xml version="1.0" encoding="utf-8"?>
<!-- Generator: Adobe Illustrator 19.1.0, SVG Export Plug-In . SVG Version: 6.00 Build 0)  -->
<svg version="1.1" id="Layer_1" xmlns="http://www.w3.org/2000/svg" xmlns:xlink="http://www.w3.org/1999/xlink" x="0px" y="0px"
	 viewBox="0 0 397.3 341.4" style="enable-background:new 0 0 397.3 341.4;" xml:space="preserve">
<style type="text/css">
	.st0{fill:#3D2F54;}
	.st1{fill:#281F37;}
	.st2{fill:url(#SVGID_1_);}
	.st3{fill:#F268DD;}
	.st4{fill:url(#SVGID_2_);}
	.st5{fill:none;stroke:#256ACB;stroke-width:0.5745;stroke-miterlimit:10;}
	.st6{fill:url(#SVGID_3_);}
	.st7{fill:url(#SVGID_4_);}
	.st8{fill:#F387E3;}
	.st9{fill:none;stroke:#FF55AE;stroke-width:0.1436;stroke-miterlimit:10;}
	.st10{fill:none;stroke:url(#SVGID_5_);stroke-width:0.9703;stroke-miterlimit:10;}
	.st11{fill:none;stroke:#3D2F54;stroke-width:3.8812;stroke-miterlimit:10;}
	.st12{fill:#A265C9;}
	.st13{fill:url(#SVGID_6_);}
	.st14{fill:url(#SVGID_7_);}
	.st15{fill:#F7F7F7;}
</style>
<g>
	<path class="st0" d="M242,122.2c2.8-3.1,8.6-1.4,8.6-1.4s15-1.6,24.9-0.3c11.2,1.4,21.5,3.4,27.5,13.8c8.5,14.7,12.2,31.4,15,48
		c2.7,16.3,5.9,33,4.4,49.6c-0.4,4.3-1.8,10.6-3.8,14.5c-3.2,6.2-16.7,17.7-22.8,19.8c-11.2,3.9-9.6-7.1-21.5-7.2
		c-16.8,0-33.4-1.4-50.3-0.2c-16.6,1.2-33.8,3.9-50.4,1.7c-13.3-1.7-25.8-12.8-31.8-24.4c-8.2-15.9,5.8-29.4,10.9-45.8
		c7.6-24.3,3.8-59.9,40.8-66c5.1-0.8,12-3.4,16.7,0c2.7,2-0.9-7.3,0.2-4.3C213.4,127.8,238.9,125.6,242,122.2z"/>
</g>
<g>
	<g>
		<g>
			<path class="st1" d="M288.6,184.5L288.6,184.5L288.6,184.5z"/>
			<path class="st1" d="M286.8,184.8c0.9,5.8,2,13.7,2.7,20.2c0.7,6.5,1.2,11.5,1.5,11.5c0.1,0,0.1-1.6,0.1-4.1
				c-0.1-2.5-0.2-5.9-0.5-9.5c-0.5-7.2-1.5-15.1-2-18.3c-0.5-3.2-2-11.1-3.8-18.1c-0.9-3.5-1.8-6.8-2.6-9.1
				c-0.8-2.4-1.3-3.9-1.4-3.8c-0.2,0.1,1,5,2.4,11.3C284.5,171.1,285.9,179,286.8,184.8z"/>
		</g>
	</g>
</g>
<linearGradient id="SVGID_1_" gradientUnits="userSpaceOnUse" x1="208.7121" y1="111.3849" x2="250.3821" y2="111.3849">
	<stop  offset="0" style="stop-color:#F5B7EC"/>
	<stop  offset="1" style="stop-color:#F6D7F1"/>
</linearGradient>
<path class="st2" d="M209.8,103.4c0,0-0.3,8-1.1,23.1c0,0,10.1,6.9,18.1,4.7c7.9-2.3,15.8-10.7,15.8-10.7s5.4-24.5,7.8-29.5
	L209.8,103.4z"/>
<path class="st3" d="M221.6,31.8c0,0-5.1,10.7-5.5,12.6c-2.4,12.1-3.7,24.4-4.6,36.6c-0.7,9,0.5,18,2,26.9
	c1.1,6.7,2.1,13.5,3.2,20.2c1.8,11.1,1,22.5,0,33.6c-0.9,10.7-2,21.1,1.4,31.5c0.7,2.1-0.6,4.3-2.8,4.6c-4.5,0.6-9.2,1-13.7,0.3
	c-1.4-0.2-2.8-0.6-3.8-1.6c-1.4-1.6-1.3-4-1.2-6c0.1-1.5,0.1-3,0.1-4.5c0.1-2.9,0-5.8,0.1-8.7c0.1-4.8-1.3-9.6-1.5-14.4
	c-0.5-13.1,0.2-26.1-0.5-39.2c-0.2-4.9-0.5-9.8-0.9-14.8c-0.3-4.5-1.6-9.4-1.4-13.9c0.1-1.8,0.1-3.7,0-5.7
	c-0.8-11.4-2.9-23.1-0.7-34.5C194.5,41.9,206.6,26.7,221.6,31.8z"/>
<linearGradient id="SVGID_2_" gradientUnits="userSpaceOnUse" x1="197.9254" y1="80.7095" x2="255.3909" y2="80.7095">
	<stop  offset="0" style="stop-color:#F6C7EF"/>
	<stop  offset="1" style="stop-color:#F7E7F5"/>
</linearGradient>
<path class="st4" d="M223.3,42.7c-1.3-0.3-3,1-4.3,0.9c-3.3-0.3-6.3,0.1-8.8,1.3c-5.1,2.3-7,7.6-8.4,12.6
	c-1.8,6.6-3.1,13.4-3.3,20.2c0,1.9-0.7,3.7-0.4,5.5c0.5,4.1,1.7,7.7,3.2,11.3c1.1,2.6,2.3,5.1,3.5,7.8c1.1,2.5,2.4,5,3.8,7.3
	c1.7,3,3.7,5.6,6.8,7.2c3.9,2,8.4,2.5,12.6,1.5c9-2.2,15.5-10.4,21.6-16.6c12.9-13.2,2.2-37.1-10.5-49.4
	C234.6,48,229.3,44.2,223.3,42.7z"/>
<path class="st3" d="M218.3,33.9c-1.6,2.6-1.9,6.3-1.9,9.5c10.9-0.4,20.5,7.6,26.7,16.6c2.1,3,3.9,6.2,4.8,9.7c1,3.9,0.7,8,0.4,12
	c-0.5,7-1,14-2.6,20.8c-1.9,8.1-4.8,16-6.9,24.3c-2,8-2.6,16.4-3.2,24.6c-0.2,3.9-0.5,7.8,0,11.7c0.6,4.8,2.2,9.5,3.8,14.1
	c2,5.8,4,11.5,6,17.3c1,2.7,1.9,5.5,3.6,7.9c2.5,3.5,6.2,5.7,9.8,7.9c2.7,1.6,5.3,3.2,8,4.8c3.7,2.2,8.4,4.5,12.1,2.2
	c-2.3-9.6-3.3-19.5-5.4-29.2c-1.8-8.2-4.3-16.2-6.2-24.5c-2.6-11.9-3.6-24.1-3.9-36.3c-0.3-11.1-1.7-22-2-32.8
	c-0.1-2.4-0.1-4.8-0.1-7.2c-0.1-4.7-0.1-9.4-0.3-14c-0.7-13.6-3-31.5-15.7-39.5c-5.8-3.7-12.2-4-18.9-3.8c-1.9,0.1-3.9,0.2-5.5,1.1
	C219.9,31.9,219,32.8,218.3,33.9z"/>
<g>
	<g>
		<g>
			<path class="st3" d="M224.7,88.6L224.7,88.6L224.7,88.6z"/>
			<path class="st3" d="M224.8,89.5c0.4,0,1-0.1,1.5-0.4c0.5-0.3,0.9-0.7,1.2-1.1c0.5-0.9,0.3-1.7,0.2-1.7c-0.1,0-0.2,0.9-0.9,1.6
				c-0.6,0.7-1.7,0.8-2.1,0.8c-0.4,0.1-1.5,0-2.6,0.3c-0.5,0.1-1,0.4-1.3,0.6c-0.3,0.2-0.4,0.5-0.4,0.5c0.1,0,0.6-0.3,1.5-0.4
				C222.8,89.4,223.9,89.6,224.8,89.5z"/>
		</g>
	</g>
</g>
<g>
	<g>
		<g>
			<path class="st3" d="M216.5,79.4c0-0.6,0.1-1.2,0.1-2c0-0.7-0.2-1.5-0.5-2.1c-0.6-1.2-1.6-1.8-1.6-1.7c-0.1,0.1,0.8,1,1.2,2.3
				c0.4,1.2,0,2.8,0,3.4c-0.1,0.6-0.2,2.2-0.3,3.6c-0.1,1.4-0.4,2.6-0.3,2.6c0.1,0.1,0.6-0.9,0.9-2.1
				C216.2,82.1,216.4,80.5,216.5,79.4z"/>
		</g>
	</g>
</g>
<g>
	<g>
		<g>
			<path class="st3" d="M216.2,90.5L216.2,90.5L216.2,90.5z"/>
			<path class="st3" d="M215.8,91.4c1,0.4,2.3,0.5,3.3,0.4c0.5-0.1,1.1-0.2,1.3-0.5c0.1-0.2,0.1-0.4,0.1-0.5c0-0.1-0.1-0.1-0.1-0.1
				c-0.1,0,0,0.3-0.3,0.4c-0.3,0.1-0.8,0.1-1.3,0.1c-1.1-0.1-2.3-0.4-2.7-0.6c-0.2-0.1-0.6-0.2-0.9-0.5c-0.3-0.3-0.6-0.7-0.8-1.2
				c-0.3-1,0.1-2,0-2c-0.1-0.1-0.7,0.6-0.6,1.8c0,0.6,0.2,1.2,0.6,1.7C214.8,90.8,215.3,91.2,215.8,91.4z"/>
		</g>
	</g>
</g>
<linearGradient id="SVGID_3_" gradientUnits="userSpaceOnUse" x1="222.6731" y1="65.2152" x2="245.1032" y2="65.2152">
	<stop  offset="0" style="stop-color:#F497E6"/>
	<stop  offset="1" style="stop-color:#F268DD"/>
</linearGradient>
<path class="st6" d="M223.4,68.2c-0.5-0.3-0.7-0.9-0.7-1.6c0-1.3,1.3-1.5,2.2-1.7c0.7-0.2,1.3-0.4,2-0.6c1.3-0.4,2.6-0.9,3.9-1.3
	c1.7-0.5,3.4-0.9,5.1-1c3.4-0.1,6.8,1.3,9.2,3.7c-0.2,0.1-0.5,0-0.8-0.1c-2.5-0.9-5.2-1.6-7.8-1.4c-2.6,0.2-5.1,1.2-7.5,2.2
	c-0.9,0.4-1.9,0.8-2.8,1.1c-0.6,0.2-1.2,0.4-1.9,0.6C223.9,68.4,223.6,68.3,223.4,68.2z"/>
<linearGradient id="SVGID_4_" gradientUnits="userSpaceOnUse" x1="199.84" y1="67.9228" x2="212.9165" y2="67.9228">
	<stop  offset="0" style="stop-color:#F497E6"/>
	<stop  offset="1" style="stop-color:#F268DD"/>
</linearGradient>
<path class="st7" d="M199.8,69.9c0.2-1.2,1.5-1.8,2.6-1.8c1.4,0,2.7,0.5,4,0.8c0.9,0.2,1.9,0.4,2.8,0.5c0.9,0.2,1.8,0.5,2.7,0.6
	c0.3,0,0.7,0,0.9-0.2c0.1-0.1,0.1-0.3,0.1-0.5c-0.1-0.6-0.5-1.3-1-1.7c-0.6-0.6-1.4-1-2.3-1.1c-0.6-0.1-1.3-0.2-1.9-0.3
	c-1.2-0.2-2.3-0.4-3.5-0.4c-1.1,0.1-2.2,0.4-3.1,1C200.1,67.6,200.1,68.8,199.8,69.9z"/>
<path class="st8" d="M212.6,99.2c0,0,2.5-3,6.4-1.4c0.3,0.1,0.7-0.2,0.9-0.3c1.3-0.6,2.6-0.1,3.9,0.4c2,0.6,4,0.9,6.1,0.9
	c1.4,0,2.8,0.1,4.1-0.3c-1.3,0.3-2.7,0.7-4,1c-3.9,0.7-7.9,0.4-11.9,0.4C216.2,100,214.2,100.1,212.6,99.2z"/>
<path class="st8" d="M212.7,99.3c0,0,0.1,0.2,0.1,0.3c0,0.1,0.1,0.2,0.1,0.3c0.1,0.2,0.2,0.3,0.3,0.5c0.1,0.2,0.2,0.4,0.4,0.6
	c0.1,0.2,0.3,0.4,0.4,0.6c0.5,0.5,1,1,1.6,1.3c0.6,0.3,1.3,0.6,2,0.8c0.7,0.2,1.4,0.3,2.1,0.3c0.3,0,0.6,0,0.9,0
	c2.2-0.1,4.4-0.5,6.4-1.2c1.7-0.6,3.5-1.3,4.9-2.5c0.3-0.3,0.6-0.5,0.8-0.8c0.2-0.2,0.4-0.6,0.7-0.6
	C233.6,98.8,221.5,101,212.7,99.3z"/>
<g>
	<g>
		<g>
			<path class="st3" d="M223.7,99.3c-2.6,0.1-6.2,0.4-9,0c-1.4-0.2-2.6-0.5-3.4-1c-0.8-0.4-1.1-0.9-1.2-0.8c0,0,0,0.2,0.2,0.5
				c0.2,0.3,0.6,0.6,1.1,0.9c1,0.6,2.5,1.1,4.1,1.3c1.6,0.2,3.3,0.2,4.8,0.2c1.5,0,2.7,0,3.4-0.1c0.7,0,2-0.1,3.4-0.2
				c1.5-0.1,3.2-0.2,4.8-0.7c1.6-0.4,3-1.1,4-1.7c1-0.6,1.5-1.1,1.4-1.2c0-0.1-0.5,0.3-1.3,0.7c-0.8,0.4-2,0.9-3.4,1.2
				c-1.4,0.4-2.9,0.6-4.5,0.6C226.6,99.2,225,99.3,223.7,99.3z"/>
		</g>
	</g>
</g>
<g>
	<polygon class="st3" points="169.4,47.6 159.6,52 159.3,50.8 169.2,46.4 	"/>
	<polygon class="st3" points="169.9,50 160.2,54.3 159.9,53.1 169.6,48.8 	"/>
	
		<rect x="155.4" y="55.6" transform="matrix(0.2228 0.9749 -0.9749 0.2228 180.0535 -113.4193)" class="st3" width="11.5" height="1.2"/>
	
		<rect x="163.8" y="52.9" transform="matrix(0.2228 0.9749 -0.9749 0.2228 184.4371 -124.2814)" class="st3" width="12.7" height="1.2"/>
	<circle class="st3" cx="160.7" cy="62.2" r="2.4"/>
	<circle class="st3" cx="169.9" cy="60.2" r="2.4"/>
</g>
<g>
	<polygon class="st3" points="171.2,87 162.2,87.8 162.3,86.8 171.3,85.9 	"/>
	<polygon class="st3" points="171,89 162,89.8 162.1,88.8 171.1,87.9 	"/>
	
		<rect x="157.5" y="91.1" transform="matrix(-9.768299e-002 0.9952 -0.9952 -9.768299e-002 269.3556 -60.9664)" class="st3" width="9.6" height="1"/>
	
		<rect x="164.9" y="91.4" transform="matrix(-9.768298e-002 0.9952 -0.9952 -9.768298e-002 278.2881 -68.5417)" class="st3" width="10.7" height="1"/>
	<circle class="st3" cx="160.4" cy="96.3" r="2"/>
	<circle class="st3" cx="168.2" cy="97.1" r="2"/>
</g>
<g>
	<polygon class="st3" points="189.9,13 180.9,15.5 180.8,14.4 189.8,11.9 	"/>
	<polygon class="st3" points="190,15 181.1,17.5 181,16.5 190,14 	"/>
	
		<rect x="176.8" y="18.8" transform="matrix(8.061566e-002 0.9967 -0.9967 8.061566e-002 186.3374 -163.4087)" class="st3" width="9.9" height="1.1"/>
	
		<rect x="184.3" y="17.6" transform="matrix(8.061568e-002 0.9967 -0.9967 8.061568e-002 192.5777 -172.5375)" class="st3" width="11" height="1.1"/>
	<circle class="st3" cx="180.6" cy="24.4" r="2.1"/>
	<circle class="st3" cx="188.7" cy="23.8" r="2.1"/>
</g>
<g>
	<polygon class="st3" points="287.6,34.6 277.9,35.6 278,34.5 287.7,33.5 	"/>
	<polygon class="st3" points="287.3,36.8 277.7,37.7 277.9,36.6 287.4,35.7 	"/>
	
		<rect x="272.9" y="39.1" transform="matrix(-9.403041e-002 0.9956 -0.9956 -9.403041e-002 343.6964 -233.4476)" class="st3" width="10.3" height="1.1"/>
	
		<rect x="280.8" y="39.4" transform="matrix(-9.403040e-002 0.9956 -0.9956 -9.403040e-002 353.2197 -241.6143)" class="st3" width="11.4" height="1.1"/>
	<circle class="st3" cx="276" cy="44.6" r="2.1"/>
	<circle class="st3" cx="284.4" cy="45.5" r="2.1"/>
</g>
<g>
	<polygon class="st3" points="242.6,4.2 235,7.9 234.7,6.9 242.4,3.2 	"/>
	<polygon class="st3" points="243,6 235.5,9.7 235.2,8.7 242.8,5.1 	"/>
	<rect x="231.8" y="10.7" transform="matrix(0.2522 0.9677 -0.9677 0.2522 187.5076 -220.3218)" class="st3" width="9" height="1"/>
	<rect x="238.3" y="8.4" transform="matrix(0.2522 0.9677 -0.9677 0.2522 190.5025 -228.8562)" class="st3" width="10" height="1"/>
	<circle class="st3" cx="236.1" cy="15.9" r="1.9"/>
	<circle class="st3" cx="243.3" cy="14.1" r="1.9"/>
</g>
<g>
	<polygon class="st3" points="290.3,87.6 279.7,90.4 279.6,89.1 290.2,86.4 	"/>
	<polygon class="st3" points="290.4,90 279.9,92.8 279.8,91.5 290.3,88.8 	"/>
	
		<rect x="274.8" y="94.3" transform="matrix(6.215753e-002 0.9981 -0.9981 6.215753e-002 357.8527 -191.0839)" class="st3" width="11.6" height="1.2"/>
	
		<rect x="283.6" y="93" transform="matrix(6.215755e-002 0.9981 -0.9981 6.215755e-002 365.4881 -201.631)" class="st3" width="12.8" height="1.2"/>
	<circle class="st3" cx="279.2" cy="100.8" r="2.4"/>
	<circle class="st3" cx="288.7" cy="100.3" r="2.4"/>
</g>
<g>
	<g>
		<g>
			<g>
				<path class="st3" d="M233.2,74.5c1.3-0.1,2.9-0.5,4.2-1c1.3-0.5,2.2-1,2.2-1.1c-0.1-0.1-1.3,0.2-2.8,0.5c-1.4,0.3-3,0.5-3.7,0.5
					c-0.5,0-1.6,0.1-2.8,0.1c-1.2,0-2.4,0-3.1,0l0,0.3c0.2,0,0.1-0.1,0.2-0.1l0-0.1l0.1-0.1c0-0.1,0.1-0.1,0.1-0.2
					c0-0.1,0.1-0.2,0-0.2c0,0-0.1,0-0.2,0.1c0,0-0.1,0.1-0.2,0.1l-0.1,0.1l0,0l0,0c0,0,0.1,0.1,0.1,0.1l0,0.2
					C228.3,74.3,231.2,74.7,233.2,74.5z"/>
			</g>
		</g>
	</g>
</g>
<g>
	<g>
		<g>
			<g>
				<path class="st3" d="M207.3,76.5c1,0,2.3-0.3,3.2-0.6c1-0.4,1.7-0.8,1.6-0.9c-0.1-0.1-1,0.1-2.1,0.3c-1.1,0.2-2.3,0.2-2.7,0.2
					c-0.5,0-1.7-0.1-2.7-0.2c-1.1-0.2-2-0.4-2.1-0.3c-0.1,0.1,0.6,0.5,1.6,0.9C205,76.2,206.3,76.5,207.3,76.5z"/>
			</g>
		</g>
	</g>
</g>
<path class="st11" d="M262,68.1c0,0,3.7-46.6-38.4-46.2c-42.1,0.5-35.2,46.4-35.2,46.4"/>
<path class="st0" d="M192,62.1l2.5,25.7c0.4,4.2-4.4,7-7.7,4.5c-3.1-2.3-6.1-6.9-7.2-15.7c-1.2-9.6,1.2-14.8,4.2-17.6
	C186.8,56.2,191.6,58.1,192,62.1z"/>
<path class="st0" d="M258.4,86.5l-1.5-25.8c-0.2-4.2,4.6-6.8,7.9-4.2c3,2.4,5.8,7.1,6.6,16c0.8,9.6-1.8,14.7-4.8,17.4
	C263.4,92.5,258.6,90.5,258.4,86.5z"/>
<path class="st12" d="M210.5,217.2l-17-1.8c-2.2-0.2-4-2.2-4-4.4l0-39.6c0-2.2,1.8-3.8,4-3.6l17,1.8c2.2,0.2,4,2.2,4,4.4l0,39.6
	C214.5,215.8,212.7,217.5,210.5,217.2z"/>
<linearGradient id="SVGID_5_" gradientUnits="userSpaceOnUse" x1="194.9924" y1="206.8069" x2="261.1295" y2="206.8069">
	<stop  offset="0" style="stop-color:#F6C7EF"/>
	<stop  offset="1" style="stop-color:#F7E7F5"/>
</linearGradient>
<path style="fill:url(#SVGID_5_);" d="M258.1,204.7c0,0-6.8-3.9-10.5-7.5c-2.7-2.7-6.4-4.5-9.8-6.2c-1.6-0.8-3.2-1.5-4.8-2.2
	c-2.9-1.1-6.1-1.5-9.2-2c-3.4-0.6-6.8-1-10.2-1.6c-2.3-0.4-4.5-1-6.7-1.3c-1.4-0.2-3.8-0.6-4.9,0.5c-0.1,0.1-0.2,0.3-0.3,0.4
	c-1.4,3.4,11,5.5,13,6c2.6,0.7,5.2,1.5,7.7,2.4c1.4,0.5,2.8,0.9,4.1,1.5c1,0.4,2.3,1.3,3.3,1.5c-7.3-1.2-14.5-2.5-21.7-4.1
	c-2.3-0.5-4.5-0.9-6.8-1.2c-1.4-0.2-3.1-0.6-4.5-0.4c-0.9,0.1-3.1,1.8,1,3.6c2.7,1.2,5.6,1.6,8.4,2.4c3.6,1,7,2.1,10.2,3.9
	c1.4,0.8,2.8,1.5,4.2,2.3c0.8,0.4,1.8,1.1,2.7,1.2c-3.6-0.7-7.2-1.2-10.8-1.9c-3.6-0.7-7.1-1.8-10.6-2.7c-1.5-0.4-3.3-1.1-4.9-1
	c-2.1,0.1-2.9,1.6-1.8,2.8c0.7,0.7,1.8,1.2,2.7,1.6c1.6,0.8,3.2,1.6,4.8,2.3c4.9,2.2,10.2,3.4,15.1,5.8c1.5,0.7,2.9,1.4,4.4,2.1
	c0.7,0.3,1.8,1,2.6,0.9c0,0-18.3-3.5-20.4-4.9c-0.5-0.3-1.8-0.3-2.3-0.1c-1.1,0.4-1.1,1.6-0.4,2.4c0.9,1.1,2.9,1.4,4.1,2
	c4.9,2,10,4,14.4,7c0.9,0.6,11.6,5.1,14,5.3c2.4,0.2,12.2,1.5,15.8,4.5c0,0,8.2-3.7,10.5-11C262,215.1,259.2,209.1,258.1,204.7z"/>
<linearGradient id="SVGID_6_" gradientUnits="userSpaceOnUse" x1="140.0764" y1="208.7005" x2="203.784" y2="208.7005">
	<stop  offset="0" style="stop-color:#F6C7EF"/>
	<stop  offset="1" style="stop-color:#F7E7F5"/>
</linearGradient>
<path class="st13" d="M140.7,206.6c0,0,6.8-3.9,10.5-7.5c2.7-2.7,6.4-4.5,9.8-6.2c1.6-0.8,3.2-1.5,4.8-2.2c2.9-1.1,6.1-1.5,9.2-2
	c3.4-0.6,6.8-1,10.2-1.6c2.3-0.4,4.5-1,6.7-1.3c1.4-0.2,3.8-0.6,4.9,0.5c0.1,0.1,0.2,0.3,0.3,0.4c1.4,3.4-11,5.5-13,6
	c-2.6,0.7-5.2,1.5-7.7,2.4c-1.4,0.5-2.8,0.9-4.1,1.5c-1,0.4-2.3,1.3-3.3,1.5c7.3-1.2,14.5-2.5,21.7-4.1c2.3-0.5,4.5-0.9,6.8-1.2
	c1.4-0.2,3.1-0.6,4.5-0.4c0.9,0.1,3.1,1.8-1,3.6c-2.7,1.2-5.6,1.6-8.4,2.4c-3.6,1-7,2.1-10.2,3.9c-1.4,0.8-2.8,1.5-4.2,2.3
	c-0.8,0.4-1.8,1.1-2.7,1.2c3.6-0.7,7.2-1.2,10.8-1.9c3.6-0.7,7.1-1.8,10.6-2.7c1.5-0.4,3.3-1.1,4.9-1c2.1,0.1,2.9,1.6,1.8,2.8
	c-0.7,0.7-1.8,1.2-2.7,1.6c-1.6,0.8-3.2,1.6-4.8,2.3c-4.9,2.2-10.2,3.4-15.1,5.8c-1.5,0.7-2.9,1.4-4.4,2.1c-0.7,0.3-1.8,1-2.6,0.9
	c0,0,18.3-3.5,20.4-4.9c0.5-0.3,1.8-0.3,2.3-0.1c1.1,0.4,1.1,1.6,0.4,2.4c-0.9,1.1-2.9,1.4-4.1,2c-4.9,2-10,4-14.4,7
	c-0.9,0.6-11.6,5.1-14,5.3c-2.4,0.2-12.2,1.5-15.8,4.5C148.4,231.8,137.4,219.4,140.7,206.6z"/>
<g>
	<path class="st0" d="M308.7,255.5c-0.9-0.9-8.9-5.7-10-6.1c-2.3-0.9-4.6,4-7,3.2c-3.2-1-6.3-2.5-9.4-3.7c-2.9-1.1-6-1.4-9-2.4
		c-3.5-1.2-6-4.4-9.5-5.7c-3.8-1.4-2.7-5.4-2.7-5.4c-1.7-0.7-11.5-4.9-11.5-4.9c20.6-10.3,7.5-26.9,7.5-26.9
		c0.4-0.1,9.4,4.1,12.7,6.8c4.9,0.5,10,0.8,14.6,2.9c4.1,1.8,8,4.6,12.6,4.7c3.4,0.1,3.8-2.1,7-3c3.2-0.9,4.9-0.4,7.6,1.5"/>
	<g>
		<g>
			<path class="st1" d="M259,224.1L259,224.1L259,224.1z"/>
			<path class="st1" d="M257.5,223.1c-1,1.3-2.3,2.5-3.7,3.6c-0.7,0.5-1.5,1.1-2.3,1.5l-0.3,0.2l-0.2,0.1c-0.1,0-0.1,0.1-0.2,0.1
				l-1.2,0.7l-1.2,0.7l-0.6,0.3l-0.2,0.1l-0.1,0c0,0,0,0,0,0l0,0l0.3,0.1c4,1.7,8.1,3.4,12.3,5.2l0,0.1c0,0.2,0,0.5,0,0.7
				c0,0.5,0.1,1,0.2,1.5c0.2,1,0.8,1.9,1.6,2.6c0.4,0.3,0.8,0.6,1.3,0.8c0.5,0.2,0.8,0.3,1.1,0.5c0.7,0.3,1.4,0.8,2.1,1.2
				c1.4,0.9,2.7,2,4.3,2.9c0.8,0.4,1.6,0.8,2.4,1.1c0.8,0.3,1.6,0.5,2.5,0.7c1.6,0.4,3.2,0.7,4.7,1.1c1.5,0.4,2.9,1,4.4,1.6
				c1.4,0.6,2.8,1.2,4.2,1.7c0.7,0.3,1.4,0.5,2,0.7l0.5,0.2c0.2,0,0.4,0.1,0.7,0.1c0.4,0,0.9-0.1,1.2-0.3c1.4-0.7,2.2-1.7,3.1-2.4
				c0.5-0.4,0.9-0.6,1.4-0.7c0.2,0,0.4,0,0.7,0.1c0.2,0.1,0.5,0.2,0.7,0.3c1.9,1,3.6,2,5,2.8c1.4,0.8,2.5,1.5,3.2,1.9
				c0.7,0.4,1.1,0.7,1.1,0.7c0.1-0.1-1.5-1.4-4.4-3.2c-1.5-0.9-3.1-2-5.3-3.2c-0.1-0.1-0.3-0.1-0.5-0.2c-0.2-0.1-0.4-0.1-0.5-0.1
				c-0.2,0-0.4,0-0.5,0.1c-0.2,0-0.3,0.1-0.5,0.2c-0.6,0.3-1.1,0.7-1.7,1.1c-0.5,0.4-1,0.8-1.5,1.2c-0.5,0.4-1.1,0.7-1.6,0.7
				c-0.1,0-0.2,0-0.4-0.1l-0.5-0.2c-0.3-0.1-0.7-0.2-1-0.4c-0.7-0.3-1.3-0.5-2-0.8c-1.4-0.6-2.8-1.2-4.2-1.8c-1.4-0.6-3-1.2-4.5-1.6
				c-1.6-0.4-3.1-0.7-4.7-1.2c-1.6-0.4-2.9-1-4.2-1.9c-1.3-0.9-2.6-1.9-4-2.8c-0.7-0.5-1.4-0.9-2.2-1.2c-0.4-0.2-0.7-0.3-1-0.5
				l-0.4-0.3l-0.4-0.3c-0.4-0.5-0.7-1-0.8-1.7c-0.1-0.3-0.1-0.7-0.1-1c0-0.1,0-0.2,0-0.3l0-0.1c0,0,0-0.1,0-0.2
				c0-0.3,0.1-0.7,0.2-1.1c-2.5-1.1-5-2.1-7.3-3.1c-1.1-0.5-2.1-0.9-3.1-1.3c-0.1,0,0,0-0.1,0c0,0,0.1-0.1,0.2-0.1l0.1,0
				c0.2-0.1,0.4-0.2,0.6-0.4c0.4-0.3,0.8-0.5,1.2-0.8c0.8-0.5,1.5-1.1,2.2-1.6c1.3-1.1,2.4-2.2,3.1-3.2c1.4-1.8,3-4.8,3.1-8.6
				c0.1-1.9-0.2-3.9-0.9-6c-0.3-1-0.7-2-1.2-3l-0.4-0.7l-0.2-0.4l0-0.1l-0.1-0.1c-0.1-0.1,0,0,0.1,0l0.1,0l1,0.5
				c1.5,0.7,2.9,1.4,4.4,2.2c1.4,0.8,2.9,1.6,4.2,2.6l0.3,0.2l0.2,0.2l0.3,0l0.7,0.1l1.3,0.1l2.5,0.2c3.3,0.4,6.6,0.9,9.5,2.2
				c2.9,1.3,5.7,2.9,8.5,3.9c1.4,0.5,2.9,0.8,4.3,0.8c0.7,0,1.4,0,2.1-0.2c0.7-0.2,1.3-0.6,1.8-0.9c1-0.8,1.9-1.4,2.9-1.8
				c1-0.4,2-0.6,2.8-0.7c1.8-0.2,3.1,0.5,4,1c0.9,0.5,1.3,0.8,1.4,0.7c0,0-0.3-0.4-1.1-0.9c-0.8-0.5-2-1.3-3.8-1.3
				c-0.9,0-1.9,0.1-2.9,0.4c-1,0.3-2.1,0.8-3.1,1.5c-1,0.7-1.9,1.3-3.2,1.4c-1.2,0.1-2.6-0.2-3.9-0.5c-2.7-0.8-5.3-2.3-8.2-3.8
				c-2.9-1.5-6.4-2.4-9.8-2.9c-1.7-0.3-3.5-0.4-5.2-0.6l-0.5-0.1l-0.4-0.3c-0.4-0.3-0.7-0.5-1.1-0.8c-0.8-0.5-1.5-1-2.3-1.4
				c-1.6-0.9-3.1-1.7-4.7-2.5l-1.2-0.6l-0.9-0.4l-1.1-0.5c-0.4-0.1-0.7-0.2-1-0.3c-0.3-0.1-0.5-0.1-0.8-0.1l-0.3,0
				c-0.1,0-0.3,0-0.4,0l-0.7-0.1l1.1,1.4c0.3,0.4,0.6,0.9,0.9,1.3c0.2,0.4,0.5,0.8,0.7,1.1c0.1,0.2,0.2,0.4,0.3,0.6
				c0.4,0.8,0.8,1.6,1,2.4c0.6,1.6,1,3.3,1,5C260.5,217.7,259.4,220.8,257.5,223.1z"/>
		</g>
	</g>
</g>
<ellipse class="st15" cx="198.7" cy="291.6" rx="198.7" ry="49.8"/>
<path class="st8" d="M203,259.5l55,3.2c3,0.7,3.8,4.5,1.5,6.5l-39,32c-2.1,1.7-5.3,0.7-6-2l-31.6-32.6
	C182.2,263.9,200.3,258.8,203,259.5z"/>
<path class="st3" d="M217.8,302L75.1,287.9c-1.6-0.2-3-1.4-3.3-3l-17.9-96.3c-0.4-2.3,1.4-4.5,3.8-4.4l148.5,4.1
	c1.9,0.1,3.4,1.5,3.6,3.3l12.1,106.3C222.2,300.3,220.2,302.3,217.8,302z"/>
</svg>
